%TF.GenerationSoftware,KiCad,Pcbnew,7.0.6*%
%TF.CreationDate,2023-08-02T18:22:00+10:00*%
%TF.ProjectId,vic20 rom,76696332-3020-4726-9f6d-2e6b69636164,rev?*%
%TF.SameCoordinates,Original*%
%TF.FileFunction,Legend,Top*%
%TF.FilePolarity,Positive*%
%FSLAX46Y46*%
G04 Gerber Fmt 4.6, Leading zero omitted, Abs format (unit mm)*
G04 Created by KiCad (PCBNEW 7.0.6) date 2023-08-02 18:22:00*
%MOMM*%
%LPD*%
G01*
G04 APERTURE LIST*
%ADD10C,0.150000*%
%ADD11C,0.120000*%
G04 APERTURE END LIST*
D10*
X105203964Y-52803571D02*
X105203964Y-51803571D01*
X105775392Y-52803571D02*
X105346821Y-52232142D01*
X105775392Y-51803571D02*
X105203964Y-52374999D01*
X106584916Y-52755952D02*
X106489678Y-52803571D01*
X106489678Y-52803571D02*
X106299202Y-52803571D01*
X106299202Y-52803571D02*
X106203964Y-52755952D01*
X106203964Y-52755952D02*
X106156345Y-52660713D01*
X106156345Y-52660713D02*
X106156345Y-52279761D01*
X106156345Y-52279761D02*
X106203964Y-52184523D01*
X106203964Y-52184523D02*
X106299202Y-52136904D01*
X106299202Y-52136904D02*
X106489678Y-52136904D01*
X106489678Y-52136904D02*
X106584916Y-52184523D01*
X106584916Y-52184523D02*
X106632535Y-52279761D01*
X106632535Y-52279761D02*
X106632535Y-52374999D01*
X106632535Y-52374999D02*
X106156345Y-52470237D01*
X107061107Y-52803571D02*
X107061107Y-52136904D01*
X107061107Y-52327380D02*
X107108726Y-52232142D01*
X107108726Y-52232142D02*
X107156345Y-52184523D01*
X107156345Y-52184523D02*
X107251583Y-52136904D01*
X107251583Y-52136904D02*
X107346821Y-52136904D01*
X107680155Y-52136904D02*
X107680155Y-52803571D01*
X107680155Y-52232142D02*
X107727774Y-52184523D01*
X107727774Y-52184523D02*
X107823012Y-52136904D01*
X107823012Y-52136904D02*
X107965869Y-52136904D01*
X107965869Y-52136904D02*
X108061107Y-52184523D01*
X108061107Y-52184523D02*
X108108726Y-52279761D01*
X108108726Y-52279761D02*
X108108726Y-52803571D01*
X109013488Y-52803571D02*
X109013488Y-52279761D01*
X109013488Y-52279761D02*
X108965869Y-52184523D01*
X108965869Y-52184523D02*
X108870631Y-52136904D01*
X108870631Y-52136904D02*
X108680155Y-52136904D01*
X108680155Y-52136904D02*
X108584917Y-52184523D01*
X109013488Y-52755952D02*
X108918250Y-52803571D01*
X108918250Y-52803571D02*
X108680155Y-52803571D01*
X108680155Y-52803571D02*
X108584917Y-52755952D01*
X108584917Y-52755952D02*
X108537298Y-52660713D01*
X108537298Y-52660713D02*
X108537298Y-52565475D01*
X108537298Y-52565475D02*
X108584917Y-52470237D01*
X108584917Y-52470237D02*
X108680155Y-52422618D01*
X108680155Y-52422618D02*
X108918250Y-52422618D01*
X108918250Y-52422618D02*
X109013488Y-52374999D01*
X109632536Y-52803571D02*
X109537298Y-52755952D01*
X109537298Y-52755952D02*
X109489679Y-52660713D01*
X109489679Y-52660713D02*
X109489679Y-51803571D01*
X105084917Y-54413571D02*
X105084917Y-53413571D01*
X105084917Y-53413571D02*
X105465869Y-53413571D01*
X105465869Y-53413571D02*
X105561107Y-53461190D01*
X105561107Y-53461190D02*
X105608726Y-53508809D01*
X105608726Y-53508809D02*
X105656345Y-53604047D01*
X105656345Y-53604047D02*
X105656345Y-53746904D01*
X105656345Y-53746904D02*
X105608726Y-53842142D01*
X105608726Y-53842142D02*
X105561107Y-53889761D01*
X105561107Y-53889761D02*
X105465869Y-53937380D01*
X105465869Y-53937380D02*
X105084917Y-53937380D01*
X106084917Y-54413571D02*
X106084917Y-53746904D01*
X106084917Y-53413571D02*
X106037298Y-53461190D01*
X106037298Y-53461190D02*
X106084917Y-53508809D01*
X106084917Y-53508809D02*
X106132536Y-53461190D01*
X106132536Y-53461190D02*
X106084917Y-53413571D01*
X106084917Y-53413571D02*
X106084917Y-53508809D01*
X106561107Y-53746904D02*
X106561107Y-54413571D01*
X106561107Y-53842142D02*
X106608726Y-53794523D01*
X106608726Y-53794523D02*
X106703964Y-53746904D01*
X106703964Y-53746904D02*
X106846821Y-53746904D01*
X106846821Y-53746904D02*
X106942059Y-53794523D01*
X106942059Y-53794523D02*
X106989678Y-53889761D01*
X106989678Y-53889761D02*
X106989678Y-54413571D01*
X108180155Y-53508809D02*
X108227774Y-53461190D01*
X108227774Y-53461190D02*
X108323012Y-53413571D01*
X108323012Y-53413571D02*
X108561107Y-53413571D01*
X108561107Y-53413571D02*
X108656345Y-53461190D01*
X108656345Y-53461190D02*
X108703964Y-53508809D01*
X108703964Y-53508809D02*
X108751583Y-53604047D01*
X108751583Y-53604047D02*
X108751583Y-53699285D01*
X108751583Y-53699285D02*
X108703964Y-53842142D01*
X108703964Y-53842142D02*
X108132536Y-54413571D01*
X108132536Y-54413571D02*
X108751583Y-54413571D01*
X109370631Y-53413571D02*
X109465869Y-53413571D01*
X109465869Y-53413571D02*
X109561107Y-53461190D01*
X109561107Y-53461190D02*
X109608726Y-53508809D01*
X109608726Y-53508809D02*
X109656345Y-53604047D01*
X109656345Y-53604047D02*
X109703964Y-53794523D01*
X109703964Y-53794523D02*
X109703964Y-54032618D01*
X109703964Y-54032618D02*
X109656345Y-54223094D01*
X109656345Y-54223094D02*
X109608726Y-54318332D01*
X109608726Y-54318332D02*
X109561107Y-54365952D01*
X109561107Y-54365952D02*
X109465869Y-54413571D01*
X109465869Y-54413571D02*
X109370631Y-54413571D01*
X109370631Y-54413571D02*
X109275393Y-54365952D01*
X109275393Y-54365952D02*
X109227774Y-54318332D01*
X109227774Y-54318332D02*
X109180155Y-54223094D01*
X109180155Y-54223094D02*
X109132536Y-54032618D01*
X109132536Y-54032618D02*
X109132536Y-53794523D01*
X109132536Y-53794523D02*
X109180155Y-53604047D01*
X109180155Y-53604047D02*
X109227774Y-53508809D01*
X109227774Y-53508809D02*
X109275393Y-53461190D01*
X109275393Y-53461190D02*
X109370631Y-53413571D01*
X101640628Y-45399694D02*
X101593009Y-45447314D01*
X101593009Y-45447314D02*
X101450152Y-45494933D01*
X101450152Y-45494933D02*
X101354914Y-45494933D01*
X101354914Y-45494933D02*
X101212057Y-45447314D01*
X101212057Y-45447314D02*
X101116819Y-45352075D01*
X101116819Y-45352075D02*
X101069200Y-45256837D01*
X101069200Y-45256837D02*
X101021581Y-45066361D01*
X101021581Y-45066361D02*
X101021581Y-44923504D01*
X101021581Y-44923504D02*
X101069200Y-44733028D01*
X101069200Y-44733028D02*
X101116819Y-44637790D01*
X101116819Y-44637790D02*
X101212057Y-44542552D01*
X101212057Y-44542552D02*
X101354914Y-44494933D01*
X101354914Y-44494933D02*
X101450152Y-44494933D01*
X101450152Y-44494933D02*
X101593009Y-44542552D01*
X101593009Y-44542552D02*
X101640628Y-44590171D01*
X102497771Y-44494933D02*
X102307295Y-44494933D01*
X102307295Y-44494933D02*
X102212057Y-44542552D01*
X102212057Y-44542552D02*
X102164438Y-44590171D01*
X102164438Y-44590171D02*
X102069200Y-44733028D01*
X102069200Y-44733028D02*
X102021581Y-44923504D01*
X102021581Y-44923504D02*
X102021581Y-45304456D01*
X102021581Y-45304456D02*
X102069200Y-45399694D01*
X102069200Y-45399694D02*
X102116819Y-45447314D01*
X102116819Y-45447314D02*
X102212057Y-45494933D01*
X102212057Y-45494933D02*
X102402533Y-45494933D01*
X102402533Y-45494933D02*
X102497771Y-45447314D01*
X102497771Y-45447314D02*
X102545390Y-45399694D01*
X102545390Y-45399694D02*
X102593009Y-45304456D01*
X102593009Y-45304456D02*
X102593009Y-45066361D01*
X102593009Y-45066361D02*
X102545390Y-44971123D01*
X102545390Y-44971123D02*
X102497771Y-44923504D01*
X102497771Y-44923504D02*
X102402533Y-44875885D01*
X102402533Y-44875885D02*
X102212057Y-44875885D01*
X102212057Y-44875885D02*
X102116819Y-44923504D01*
X102116819Y-44923504D02*
X102069200Y-44971123D01*
X102069200Y-44971123D02*
X102021581Y-45066361D01*
X103450152Y-44828266D02*
X103450152Y-45494933D01*
X103212057Y-44447314D02*
X102973962Y-45161599D01*
X102973962Y-45161599D02*
X103593009Y-45161599D01*
X104688247Y-44447314D02*
X103831105Y-45733028D01*
X104878724Y-44494933D02*
X105212057Y-45494933D01*
X105212057Y-45494933D02*
X105545390Y-44494933D01*
X105878724Y-45494933D02*
X105878724Y-44494933D01*
X106926342Y-45399694D02*
X106878723Y-45447314D01*
X106878723Y-45447314D02*
X106735866Y-45494933D01*
X106735866Y-45494933D02*
X106640628Y-45494933D01*
X106640628Y-45494933D02*
X106497771Y-45447314D01*
X106497771Y-45447314D02*
X106402533Y-45352075D01*
X106402533Y-45352075D02*
X106354914Y-45256837D01*
X106354914Y-45256837D02*
X106307295Y-45066361D01*
X106307295Y-45066361D02*
X106307295Y-44923504D01*
X106307295Y-44923504D02*
X106354914Y-44733028D01*
X106354914Y-44733028D02*
X106402533Y-44637790D01*
X106402533Y-44637790D02*
X106497771Y-44542552D01*
X106497771Y-44542552D02*
X106640628Y-44494933D01*
X106640628Y-44494933D02*
X106735866Y-44494933D01*
X106735866Y-44494933D02*
X106878723Y-44542552D01*
X106878723Y-44542552D02*
X106926342Y-44590171D01*
X107307295Y-44590171D02*
X107354914Y-44542552D01*
X107354914Y-44542552D02*
X107450152Y-44494933D01*
X107450152Y-44494933D02*
X107688247Y-44494933D01*
X107688247Y-44494933D02*
X107783485Y-44542552D01*
X107783485Y-44542552D02*
X107831104Y-44590171D01*
X107831104Y-44590171D02*
X107878723Y-44685409D01*
X107878723Y-44685409D02*
X107878723Y-44780647D01*
X107878723Y-44780647D02*
X107831104Y-44923504D01*
X107831104Y-44923504D02*
X107259676Y-45494933D01*
X107259676Y-45494933D02*
X107878723Y-45494933D01*
X108497771Y-44494933D02*
X108593009Y-44494933D01*
X108593009Y-44494933D02*
X108688247Y-44542552D01*
X108688247Y-44542552D02*
X108735866Y-44590171D01*
X108735866Y-44590171D02*
X108783485Y-44685409D01*
X108783485Y-44685409D02*
X108831104Y-44875885D01*
X108831104Y-44875885D02*
X108831104Y-45113980D01*
X108831104Y-45113980D02*
X108783485Y-45304456D01*
X108783485Y-45304456D02*
X108735866Y-45399694D01*
X108735866Y-45399694D02*
X108688247Y-45447314D01*
X108688247Y-45447314D02*
X108593009Y-45494933D01*
X108593009Y-45494933D02*
X108497771Y-45494933D01*
X108497771Y-45494933D02*
X108402533Y-45447314D01*
X108402533Y-45447314D02*
X108354914Y-45399694D01*
X108354914Y-45399694D02*
X108307295Y-45304456D01*
X108307295Y-45304456D02*
X108259676Y-45113980D01*
X108259676Y-45113980D02*
X108259676Y-44875885D01*
X108259676Y-44875885D02*
X108307295Y-44685409D01*
X108307295Y-44685409D02*
X108354914Y-44590171D01*
X108354914Y-44590171D02*
X108402533Y-44542552D01*
X108402533Y-44542552D02*
X108497771Y-44494933D01*
X101069200Y-47104933D02*
X101069200Y-46104933D01*
X101640628Y-47104933D02*
X101212057Y-46533504D01*
X101640628Y-46104933D02*
X101069200Y-46676361D01*
X102450152Y-47057314D02*
X102354914Y-47104933D01*
X102354914Y-47104933D02*
X102164438Y-47104933D01*
X102164438Y-47104933D02*
X102069200Y-47057314D01*
X102069200Y-47057314D02*
X102021581Y-46962075D01*
X102021581Y-46962075D02*
X102021581Y-46581123D01*
X102021581Y-46581123D02*
X102069200Y-46485885D01*
X102069200Y-46485885D02*
X102164438Y-46438266D01*
X102164438Y-46438266D02*
X102354914Y-46438266D01*
X102354914Y-46438266D02*
X102450152Y-46485885D01*
X102450152Y-46485885D02*
X102497771Y-46581123D01*
X102497771Y-46581123D02*
X102497771Y-46676361D01*
X102497771Y-46676361D02*
X102021581Y-46771599D01*
X102926343Y-47104933D02*
X102926343Y-46438266D01*
X102926343Y-46628742D02*
X102973962Y-46533504D01*
X102973962Y-46533504D02*
X103021581Y-46485885D01*
X103021581Y-46485885D02*
X103116819Y-46438266D01*
X103116819Y-46438266D02*
X103212057Y-46438266D01*
X103545391Y-46438266D02*
X103545391Y-47104933D01*
X103545391Y-46533504D02*
X103593010Y-46485885D01*
X103593010Y-46485885D02*
X103688248Y-46438266D01*
X103688248Y-46438266D02*
X103831105Y-46438266D01*
X103831105Y-46438266D02*
X103926343Y-46485885D01*
X103926343Y-46485885D02*
X103973962Y-46581123D01*
X103973962Y-46581123D02*
X103973962Y-47104933D01*
X104878724Y-47104933D02*
X104878724Y-46581123D01*
X104878724Y-46581123D02*
X104831105Y-46485885D01*
X104831105Y-46485885D02*
X104735867Y-46438266D01*
X104735867Y-46438266D02*
X104545391Y-46438266D01*
X104545391Y-46438266D02*
X104450153Y-46485885D01*
X104878724Y-47057314D02*
X104783486Y-47104933D01*
X104783486Y-47104933D02*
X104545391Y-47104933D01*
X104545391Y-47104933D02*
X104450153Y-47057314D01*
X104450153Y-47057314D02*
X104402534Y-46962075D01*
X104402534Y-46962075D02*
X104402534Y-46866837D01*
X104402534Y-46866837D02*
X104450153Y-46771599D01*
X104450153Y-46771599D02*
X104545391Y-46723980D01*
X104545391Y-46723980D02*
X104783486Y-46723980D01*
X104783486Y-46723980D02*
X104878724Y-46676361D01*
X105497772Y-47104933D02*
X105402534Y-47057314D01*
X105402534Y-47057314D02*
X105354915Y-46962075D01*
X105354915Y-46962075D02*
X105354915Y-46104933D01*
X107450154Y-47104933D02*
X107402535Y-47104933D01*
X107402535Y-47104933D02*
X107307296Y-47057314D01*
X107307296Y-47057314D02*
X107164439Y-46914456D01*
X107164439Y-46914456D02*
X106926344Y-46628742D01*
X106926344Y-46628742D02*
X106831106Y-46485885D01*
X106831106Y-46485885D02*
X106783487Y-46343028D01*
X106783487Y-46343028D02*
X106783487Y-46247790D01*
X106783487Y-46247790D02*
X106831106Y-46152552D01*
X106831106Y-46152552D02*
X106926344Y-46104933D01*
X106926344Y-46104933D02*
X106973963Y-46104933D01*
X106973963Y-46104933D02*
X107069201Y-46152552D01*
X107069201Y-46152552D02*
X107116820Y-46247790D01*
X107116820Y-46247790D02*
X107116820Y-46295409D01*
X107116820Y-46295409D02*
X107069201Y-46390647D01*
X107069201Y-46390647D02*
X107021582Y-46438266D01*
X107021582Y-46438266D02*
X106735868Y-46628742D01*
X106735868Y-46628742D02*
X106688249Y-46676361D01*
X106688249Y-46676361D02*
X106640630Y-46771599D01*
X106640630Y-46771599D02*
X106640630Y-46914456D01*
X106640630Y-46914456D02*
X106688249Y-47009694D01*
X106688249Y-47009694D02*
X106735868Y-47057314D01*
X106735868Y-47057314D02*
X106831106Y-47104933D01*
X106831106Y-47104933D02*
X106973963Y-47104933D01*
X106973963Y-47104933D02*
X107069201Y-47057314D01*
X107069201Y-47057314D02*
X107116820Y-47009694D01*
X107116820Y-47009694D02*
X107259677Y-46819218D01*
X107259677Y-46819218D02*
X107307296Y-46676361D01*
X107307296Y-46676361D02*
X107307296Y-46581123D01*
X108973963Y-46581123D02*
X109116820Y-46628742D01*
X109116820Y-46628742D02*
X109164439Y-46676361D01*
X109164439Y-46676361D02*
X109212058Y-46771599D01*
X109212058Y-46771599D02*
X109212058Y-46914456D01*
X109212058Y-46914456D02*
X109164439Y-47009694D01*
X109164439Y-47009694D02*
X109116820Y-47057314D01*
X109116820Y-47057314D02*
X109021582Y-47104933D01*
X109021582Y-47104933D02*
X108640630Y-47104933D01*
X108640630Y-47104933D02*
X108640630Y-46104933D01*
X108640630Y-46104933D02*
X108973963Y-46104933D01*
X108973963Y-46104933D02*
X109069201Y-46152552D01*
X109069201Y-46152552D02*
X109116820Y-46200171D01*
X109116820Y-46200171D02*
X109164439Y-46295409D01*
X109164439Y-46295409D02*
X109164439Y-46390647D01*
X109164439Y-46390647D02*
X109116820Y-46485885D01*
X109116820Y-46485885D02*
X109069201Y-46533504D01*
X109069201Y-46533504D02*
X108973963Y-46581123D01*
X108973963Y-46581123D02*
X108640630Y-46581123D01*
X110069201Y-47104933D02*
X110069201Y-46581123D01*
X110069201Y-46581123D02*
X110021582Y-46485885D01*
X110021582Y-46485885D02*
X109926344Y-46438266D01*
X109926344Y-46438266D02*
X109735868Y-46438266D01*
X109735868Y-46438266D02*
X109640630Y-46485885D01*
X110069201Y-47057314D02*
X109973963Y-47104933D01*
X109973963Y-47104933D02*
X109735868Y-47104933D01*
X109735868Y-47104933D02*
X109640630Y-47057314D01*
X109640630Y-47057314D02*
X109593011Y-46962075D01*
X109593011Y-46962075D02*
X109593011Y-46866837D01*
X109593011Y-46866837D02*
X109640630Y-46771599D01*
X109640630Y-46771599D02*
X109735868Y-46723980D01*
X109735868Y-46723980D02*
X109973963Y-46723980D01*
X109973963Y-46723980D02*
X110069201Y-46676361D01*
X110497773Y-47057314D02*
X110593011Y-47104933D01*
X110593011Y-47104933D02*
X110783487Y-47104933D01*
X110783487Y-47104933D02*
X110878725Y-47057314D01*
X110878725Y-47057314D02*
X110926344Y-46962075D01*
X110926344Y-46962075D02*
X110926344Y-46914456D01*
X110926344Y-46914456D02*
X110878725Y-46819218D01*
X110878725Y-46819218D02*
X110783487Y-46771599D01*
X110783487Y-46771599D02*
X110640630Y-46771599D01*
X110640630Y-46771599D02*
X110545392Y-46723980D01*
X110545392Y-46723980D02*
X110497773Y-46628742D01*
X110497773Y-46628742D02*
X110497773Y-46581123D01*
X110497773Y-46581123D02*
X110545392Y-46485885D01*
X110545392Y-46485885D02*
X110640630Y-46438266D01*
X110640630Y-46438266D02*
X110783487Y-46438266D01*
X110783487Y-46438266D02*
X110878725Y-46485885D01*
X111354916Y-47104933D02*
X111354916Y-46438266D01*
X111354916Y-46104933D02*
X111307297Y-46152552D01*
X111307297Y-46152552D02*
X111354916Y-46200171D01*
X111354916Y-46200171D02*
X111402535Y-46152552D01*
X111402535Y-46152552D02*
X111354916Y-46104933D01*
X111354916Y-46104933D02*
X111354916Y-46200171D01*
X112259677Y-47057314D02*
X112164439Y-47104933D01*
X112164439Y-47104933D02*
X111973963Y-47104933D01*
X111973963Y-47104933D02*
X111878725Y-47057314D01*
X111878725Y-47057314D02*
X111831106Y-47009694D01*
X111831106Y-47009694D02*
X111783487Y-46914456D01*
X111783487Y-46914456D02*
X111783487Y-46628742D01*
X111783487Y-46628742D02*
X111831106Y-46533504D01*
X111831106Y-46533504D02*
X111878725Y-46485885D01*
X111878725Y-46485885D02*
X111973963Y-46438266D01*
X111973963Y-46438266D02*
X112164439Y-46438266D01*
X112164439Y-46438266D02*
X112259677Y-46485885D01*
X101640628Y-48714933D02*
X101307295Y-48238742D01*
X101069200Y-48714933D02*
X101069200Y-47714933D01*
X101069200Y-47714933D02*
X101450152Y-47714933D01*
X101450152Y-47714933D02*
X101545390Y-47762552D01*
X101545390Y-47762552D02*
X101593009Y-47810171D01*
X101593009Y-47810171D02*
X101640628Y-47905409D01*
X101640628Y-47905409D02*
X101640628Y-48048266D01*
X101640628Y-48048266D02*
X101593009Y-48143504D01*
X101593009Y-48143504D02*
X101545390Y-48191123D01*
X101545390Y-48191123D02*
X101450152Y-48238742D01*
X101450152Y-48238742D02*
X101069200Y-48238742D01*
X102259676Y-47714933D02*
X102450152Y-47714933D01*
X102450152Y-47714933D02*
X102545390Y-47762552D01*
X102545390Y-47762552D02*
X102640628Y-47857790D01*
X102640628Y-47857790D02*
X102688247Y-48048266D01*
X102688247Y-48048266D02*
X102688247Y-48381599D01*
X102688247Y-48381599D02*
X102640628Y-48572075D01*
X102640628Y-48572075D02*
X102545390Y-48667314D01*
X102545390Y-48667314D02*
X102450152Y-48714933D01*
X102450152Y-48714933D02*
X102259676Y-48714933D01*
X102259676Y-48714933D02*
X102164438Y-48667314D01*
X102164438Y-48667314D02*
X102069200Y-48572075D01*
X102069200Y-48572075D02*
X102021581Y-48381599D01*
X102021581Y-48381599D02*
X102021581Y-48048266D01*
X102021581Y-48048266D02*
X102069200Y-47857790D01*
X102069200Y-47857790D02*
X102164438Y-47762552D01*
X102164438Y-47762552D02*
X102259676Y-47714933D01*
X103116819Y-48714933D02*
X103116819Y-47714933D01*
X103116819Y-47714933D02*
X103450152Y-48429218D01*
X103450152Y-48429218D02*
X103783485Y-47714933D01*
X103783485Y-47714933D02*
X103783485Y-48714933D01*
X105593009Y-48714933D02*
X105259676Y-48238742D01*
X105021581Y-48714933D02*
X105021581Y-47714933D01*
X105021581Y-47714933D02*
X105402533Y-47714933D01*
X105402533Y-47714933D02*
X105497771Y-47762552D01*
X105497771Y-47762552D02*
X105545390Y-47810171D01*
X105545390Y-47810171D02*
X105593009Y-47905409D01*
X105593009Y-47905409D02*
X105593009Y-48048266D01*
X105593009Y-48048266D02*
X105545390Y-48143504D01*
X105545390Y-48143504D02*
X105497771Y-48191123D01*
X105497771Y-48191123D02*
X105402533Y-48238742D01*
X105402533Y-48238742D02*
X105021581Y-48238742D01*
X106402533Y-48667314D02*
X106307295Y-48714933D01*
X106307295Y-48714933D02*
X106116819Y-48714933D01*
X106116819Y-48714933D02*
X106021581Y-48667314D01*
X106021581Y-48667314D02*
X105973962Y-48572075D01*
X105973962Y-48572075D02*
X105973962Y-48191123D01*
X105973962Y-48191123D02*
X106021581Y-48095885D01*
X106021581Y-48095885D02*
X106116819Y-48048266D01*
X106116819Y-48048266D02*
X106307295Y-48048266D01*
X106307295Y-48048266D02*
X106402533Y-48095885D01*
X106402533Y-48095885D02*
X106450152Y-48191123D01*
X106450152Y-48191123D02*
X106450152Y-48286361D01*
X106450152Y-48286361D02*
X105973962Y-48381599D01*
X106878724Y-48048266D02*
X106878724Y-49048266D01*
X106878724Y-48095885D02*
X106973962Y-48048266D01*
X106973962Y-48048266D02*
X107164438Y-48048266D01*
X107164438Y-48048266D02*
X107259676Y-48095885D01*
X107259676Y-48095885D02*
X107307295Y-48143504D01*
X107307295Y-48143504D02*
X107354914Y-48238742D01*
X107354914Y-48238742D02*
X107354914Y-48524456D01*
X107354914Y-48524456D02*
X107307295Y-48619694D01*
X107307295Y-48619694D02*
X107259676Y-48667314D01*
X107259676Y-48667314D02*
X107164438Y-48714933D01*
X107164438Y-48714933D02*
X106973962Y-48714933D01*
X106973962Y-48714933D02*
X106878724Y-48667314D01*
X107926343Y-48714933D02*
X107831105Y-48667314D01*
X107831105Y-48667314D02*
X107783486Y-48572075D01*
X107783486Y-48572075D02*
X107783486Y-47714933D01*
X108735867Y-48714933D02*
X108735867Y-48191123D01*
X108735867Y-48191123D02*
X108688248Y-48095885D01*
X108688248Y-48095885D02*
X108593010Y-48048266D01*
X108593010Y-48048266D02*
X108402534Y-48048266D01*
X108402534Y-48048266D02*
X108307296Y-48095885D01*
X108735867Y-48667314D02*
X108640629Y-48714933D01*
X108640629Y-48714933D02*
X108402534Y-48714933D01*
X108402534Y-48714933D02*
X108307296Y-48667314D01*
X108307296Y-48667314D02*
X108259677Y-48572075D01*
X108259677Y-48572075D02*
X108259677Y-48476837D01*
X108259677Y-48476837D02*
X108307296Y-48381599D01*
X108307296Y-48381599D02*
X108402534Y-48333980D01*
X108402534Y-48333980D02*
X108640629Y-48333980D01*
X108640629Y-48333980D02*
X108735867Y-48286361D01*
X109640629Y-48667314D02*
X109545391Y-48714933D01*
X109545391Y-48714933D02*
X109354915Y-48714933D01*
X109354915Y-48714933D02*
X109259677Y-48667314D01*
X109259677Y-48667314D02*
X109212058Y-48619694D01*
X109212058Y-48619694D02*
X109164439Y-48524456D01*
X109164439Y-48524456D02*
X109164439Y-48238742D01*
X109164439Y-48238742D02*
X109212058Y-48143504D01*
X109212058Y-48143504D02*
X109259677Y-48095885D01*
X109259677Y-48095885D02*
X109354915Y-48048266D01*
X109354915Y-48048266D02*
X109545391Y-48048266D01*
X109545391Y-48048266D02*
X109640629Y-48095885D01*
X110450153Y-48667314D02*
X110354915Y-48714933D01*
X110354915Y-48714933D02*
X110164439Y-48714933D01*
X110164439Y-48714933D02*
X110069201Y-48667314D01*
X110069201Y-48667314D02*
X110021582Y-48572075D01*
X110021582Y-48572075D02*
X110021582Y-48191123D01*
X110021582Y-48191123D02*
X110069201Y-48095885D01*
X110069201Y-48095885D02*
X110164439Y-48048266D01*
X110164439Y-48048266D02*
X110354915Y-48048266D01*
X110354915Y-48048266D02*
X110450153Y-48095885D01*
X110450153Y-48095885D02*
X110497772Y-48191123D01*
X110497772Y-48191123D02*
X110497772Y-48286361D01*
X110497772Y-48286361D02*
X110021582Y-48381599D01*
X110926344Y-48714933D02*
X110926344Y-48048266D01*
X110926344Y-48238742D02*
X110973963Y-48143504D01*
X110973963Y-48143504D02*
X111021582Y-48095885D01*
X111021582Y-48095885D02*
X111116820Y-48048266D01*
X111116820Y-48048266D02*
X111212058Y-48048266D01*
X101069200Y-50324933D02*
X101069200Y-49324933D01*
X101069200Y-49324933D02*
X101402533Y-50039218D01*
X101402533Y-50039218D02*
X101735866Y-49324933D01*
X101735866Y-49324933D02*
X101735866Y-50324933D01*
X102545390Y-49801123D02*
X102688247Y-49848742D01*
X102688247Y-49848742D02*
X102735866Y-49896361D01*
X102735866Y-49896361D02*
X102783485Y-49991599D01*
X102783485Y-49991599D02*
X102783485Y-50134456D01*
X102783485Y-50134456D02*
X102735866Y-50229694D01*
X102735866Y-50229694D02*
X102688247Y-50277314D01*
X102688247Y-50277314D02*
X102593009Y-50324933D01*
X102593009Y-50324933D02*
X102212057Y-50324933D01*
X102212057Y-50324933D02*
X102212057Y-49324933D01*
X102212057Y-49324933D02*
X102545390Y-49324933D01*
X102545390Y-49324933D02*
X102640628Y-49372552D01*
X102640628Y-49372552D02*
X102688247Y-49420171D01*
X102688247Y-49420171D02*
X102735866Y-49515409D01*
X102735866Y-49515409D02*
X102735866Y-49610647D01*
X102735866Y-49610647D02*
X102688247Y-49705885D01*
X102688247Y-49705885D02*
X102640628Y-49753504D01*
X102640628Y-49753504D02*
X102545390Y-49801123D01*
X102545390Y-49801123D02*
X102212057Y-49801123D01*
X103926343Y-49420171D02*
X103973962Y-49372552D01*
X103973962Y-49372552D02*
X104069200Y-49324933D01*
X104069200Y-49324933D02*
X104307295Y-49324933D01*
X104307295Y-49324933D02*
X104402533Y-49372552D01*
X104402533Y-49372552D02*
X104450152Y-49420171D01*
X104450152Y-49420171D02*
X104497771Y-49515409D01*
X104497771Y-49515409D02*
X104497771Y-49610647D01*
X104497771Y-49610647D02*
X104450152Y-49753504D01*
X104450152Y-49753504D02*
X103878724Y-50324933D01*
X103878724Y-50324933D02*
X104497771Y-50324933D01*
X105116819Y-49324933D02*
X105212057Y-49324933D01*
X105212057Y-49324933D02*
X105307295Y-49372552D01*
X105307295Y-49372552D02*
X105354914Y-49420171D01*
X105354914Y-49420171D02*
X105402533Y-49515409D01*
X105402533Y-49515409D02*
X105450152Y-49705885D01*
X105450152Y-49705885D02*
X105450152Y-49943980D01*
X105450152Y-49943980D02*
X105402533Y-50134456D01*
X105402533Y-50134456D02*
X105354914Y-50229694D01*
X105354914Y-50229694D02*
X105307295Y-50277314D01*
X105307295Y-50277314D02*
X105212057Y-50324933D01*
X105212057Y-50324933D02*
X105116819Y-50324933D01*
X105116819Y-50324933D02*
X105021581Y-50277314D01*
X105021581Y-50277314D02*
X104973962Y-50229694D01*
X104973962Y-50229694D02*
X104926343Y-50134456D01*
X104926343Y-50134456D02*
X104878724Y-49943980D01*
X104878724Y-49943980D02*
X104878724Y-49705885D01*
X104878724Y-49705885D02*
X104926343Y-49515409D01*
X104926343Y-49515409D02*
X104973962Y-49420171D01*
X104973962Y-49420171D02*
X105021581Y-49372552D01*
X105021581Y-49372552D02*
X105116819Y-49324933D01*
X105831105Y-49420171D02*
X105878724Y-49372552D01*
X105878724Y-49372552D02*
X105973962Y-49324933D01*
X105973962Y-49324933D02*
X106212057Y-49324933D01*
X106212057Y-49324933D02*
X106307295Y-49372552D01*
X106307295Y-49372552D02*
X106354914Y-49420171D01*
X106354914Y-49420171D02*
X106402533Y-49515409D01*
X106402533Y-49515409D02*
X106402533Y-49610647D01*
X106402533Y-49610647D02*
X106354914Y-49753504D01*
X106354914Y-49753504D02*
X105783486Y-50324933D01*
X105783486Y-50324933D02*
X106402533Y-50324933D01*
X106735867Y-49324933D02*
X107354914Y-49324933D01*
X107354914Y-49324933D02*
X107021581Y-49705885D01*
X107021581Y-49705885D02*
X107164438Y-49705885D01*
X107164438Y-49705885D02*
X107259676Y-49753504D01*
X107259676Y-49753504D02*
X107307295Y-49801123D01*
X107307295Y-49801123D02*
X107354914Y-49896361D01*
X107354914Y-49896361D02*
X107354914Y-50134456D01*
X107354914Y-50134456D02*
X107307295Y-50229694D01*
X107307295Y-50229694D02*
X107259676Y-50277314D01*
X107259676Y-50277314D02*
X107164438Y-50324933D01*
X107164438Y-50324933D02*
X106878724Y-50324933D01*
X106878724Y-50324933D02*
X106783486Y-50277314D01*
X106783486Y-50277314D02*
X106735867Y-50229694D01*
X105028616Y-58345601D02*
X105695282Y-58345601D01*
X105695282Y-58345601D02*
X105266711Y-59345601D01*
X106504806Y-58678934D02*
X106504806Y-59345601D01*
X106266711Y-58297982D02*
X106028616Y-59012267D01*
X106028616Y-59012267D02*
X106647663Y-59012267D01*
X107219092Y-58345601D02*
X107314330Y-58345601D01*
X107314330Y-58345601D02*
X107409568Y-58393220D01*
X107409568Y-58393220D02*
X107457187Y-58440839D01*
X107457187Y-58440839D02*
X107504806Y-58536077D01*
X107504806Y-58536077D02*
X107552425Y-58726553D01*
X107552425Y-58726553D02*
X107552425Y-58964648D01*
X107552425Y-58964648D02*
X107504806Y-59155124D01*
X107504806Y-59155124D02*
X107457187Y-59250362D01*
X107457187Y-59250362D02*
X107409568Y-59297982D01*
X107409568Y-59297982D02*
X107314330Y-59345601D01*
X107314330Y-59345601D02*
X107219092Y-59345601D01*
X107219092Y-59345601D02*
X107123854Y-59297982D01*
X107123854Y-59297982D02*
X107076235Y-59250362D01*
X107076235Y-59250362D02*
X107028616Y-59155124D01*
X107028616Y-59155124D02*
X106980997Y-58964648D01*
X106980997Y-58964648D02*
X106980997Y-58726553D01*
X106980997Y-58726553D02*
X107028616Y-58536077D01*
X107028616Y-58536077D02*
X107076235Y-58440839D01*
X107076235Y-58440839D02*
X107123854Y-58393220D01*
X107123854Y-58393220D02*
X107219092Y-58345601D01*
X108123854Y-58774172D02*
X108028616Y-58726553D01*
X108028616Y-58726553D02*
X107980997Y-58678934D01*
X107980997Y-58678934D02*
X107933378Y-58583696D01*
X107933378Y-58583696D02*
X107933378Y-58536077D01*
X107933378Y-58536077D02*
X107980997Y-58440839D01*
X107980997Y-58440839D02*
X108028616Y-58393220D01*
X108028616Y-58393220D02*
X108123854Y-58345601D01*
X108123854Y-58345601D02*
X108314330Y-58345601D01*
X108314330Y-58345601D02*
X108409568Y-58393220D01*
X108409568Y-58393220D02*
X108457187Y-58440839D01*
X108457187Y-58440839D02*
X108504806Y-58536077D01*
X108504806Y-58536077D02*
X108504806Y-58583696D01*
X108504806Y-58583696D02*
X108457187Y-58678934D01*
X108457187Y-58678934D02*
X108409568Y-58726553D01*
X108409568Y-58726553D02*
X108314330Y-58774172D01*
X108314330Y-58774172D02*
X108123854Y-58774172D01*
X108123854Y-58774172D02*
X108028616Y-58821791D01*
X108028616Y-58821791D02*
X107980997Y-58869410D01*
X107980997Y-58869410D02*
X107933378Y-58964648D01*
X107933378Y-58964648D02*
X107933378Y-59155124D01*
X107933378Y-59155124D02*
X107980997Y-59250362D01*
X107980997Y-59250362D02*
X108028616Y-59297982D01*
X108028616Y-59297982D02*
X108123854Y-59345601D01*
X108123854Y-59345601D02*
X108314330Y-59345601D01*
X108314330Y-59345601D02*
X108409568Y-59297982D01*
X108409568Y-59297982D02*
X108457187Y-59250362D01*
X108457187Y-59250362D02*
X108504806Y-59155124D01*
X108504806Y-59155124D02*
X108504806Y-58964648D01*
X108504806Y-58964648D02*
X108457187Y-58869410D01*
X108457187Y-58869410D02*
X108409568Y-58821791D01*
X108409568Y-58821791D02*
X108314330Y-58774172D01*
X110812395Y-76609764D02*
X110717157Y-76562145D01*
X110717157Y-76562145D02*
X110574300Y-76562145D01*
X110574300Y-76562145D02*
X110431443Y-76609764D01*
X110431443Y-76609764D02*
X110336205Y-76705002D01*
X110336205Y-76705002D02*
X110288586Y-76800240D01*
X110288586Y-76800240D02*
X110240967Y-76990716D01*
X110240967Y-76990716D02*
X110240967Y-77133573D01*
X110240967Y-77133573D02*
X110288586Y-77324049D01*
X110288586Y-77324049D02*
X110336205Y-77419287D01*
X110336205Y-77419287D02*
X110431443Y-77514526D01*
X110431443Y-77514526D02*
X110574300Y-77562145D01*
X110574300Y-77562145D02*
X110669538Y-77562145D01*
X110669538Y-77562145D02*
X110812395Y-77514526D01*
X110812395Y-77514526D02*
X110860014Y-77466906D01*
X110860014Y-77466906D02*
X110860014Y-77133573D01*
X110860014Y-77133573D02*
X110669538Y-77133573D01*
X111288586Y-77562145D02*
X111288586Y-76562145D01*
X111288586Y-76562145D02*
X111860014Y-77562145D01*
X111860014Y-77562145D02*
X111860014Y-76562145D01*
X112336205Y-77562145D02*
X112336205Y-76562145D01*
X112336205Y-76562145D02*
X112574300Y-76562145D01*
X112574300Y-76562145D02*
X112717157Y-76609764D01*
X112717157Y-76609764D02*
X112812395Y-76705002D01*
X112812395Y-76705002D02*
X112860014Y-76800240D01*
X112860014Y-76800240D02*
X112907633Y-76990716D01*
X112907633Y-76990716D02*
X112907633Y-77133573D01*
X112907633Y-77133573D02*
X112860014Y-77324049D01*
X112860014Y-77324049D02*
X112812395Y-77419287D01*
X112812395Y-77419287D02*
X112717157Y-77514526D01*
X112717157Y-77514526D02*
X112574300Y-77562145D01*
X112574300Y-77562145D02*
X112336205Y-77562145D01*
X104312213Y-77562145D02*
X104312213Y-76562145D01*
X104883641Y-77562145D02*
X104455070Y-76990716D01*
X104883641Y-76562145D02*
X104312213Y-77133573D01*
X105264594Y-76657383D02*
X105312213Y-76609764D01*
X105312213Y-76609764D02*
X105407451Y-76562145D01*
X105407451Y-76562145D02*
X105645546Y-76562145D01*
X105645546Y-76562145D02*
X105740784Y-76609764D01*
X105740784Y-76609764D02*
X105788403Y-76657383D01*
X105788403Y-76657383D02*
X105836022Y-76752621D01*
X105836022Y-76752621D02*
X105836022Y-76847859D01*
X105836022Y-76847859D02*
X105788403Y-76990716D01*
X105788403Y-76990716D02*
X105216975Y-77562145D01*
X105216975Y-77562145D02*
X105836022Y-77562145D01*
X101575389Y-77038335D02*
X101718246Y-77085954D01*
X101718246Y-77085954D02*
X101765865Y-77133573D01*
X101765865Y-77133573D02*
X101813484Y-77228811D01*
X101813484Y-77228811D02*
X101813484Y-77371668D01*
X101813484Y-77371668D02*
X101765865Y-77466906D01*
X101765865Y-77466906D02*
X101718246Y-77514526D01*
X101718246Y-77514526D02*
X101623008Y-77562145D01*
X101623008Y-77562145D02*
X101242056Y-77562145D01*
X101242056Y-77562145D02*
X101242056Y-76562145D01*
X101242056Y-76562145D02*
X101575389Y-76562145D01*
X101575389Y-76562145D02*
X101670627Y-76609764D01*
X101670627Y-76609764D02*
X101718246Y-76657383D01*
X101718246Y-76657383D02*
X101765865Y-76752621D01*
X101765865Y-76752621D02*
X101765865Y-76847859D01*
X101765865Y-76847859D02*
X101718246Y-76943097D01*
X101718246Y-76943097D02*
X101670627Y-76990716D01*
X101670627Y-76990716D02*
X101575389Y-77038335D01*
X101575389Y-77038335D02*
X101242056Y-77038335D01*
X102194437Y-76657383D02*
X102242056Y-76609764D01*
X102242056Y-76609764D02*
X102337294Y-76562145D01*
X102337294Y-76562145D02*
X102575389Y-76562145D01*
X102575389Y-76562145D02*
X102670627Y-76609764D01*
X102670627Y-76609764D02*
X102718246Y-76657383D01*
X102718246Y-76657383D02*
X102765865Y-76752621D01*
X102765865Y-76752621D02*
X102765865Y-76847859D01*
X102765865Y-76847859D02*
X102718246Y-76990716D01*
X102718246Y-76990716D02*
X102146818Y-77562145D01*
X102146818Y-77562145D02*
X102765865Y-77562145D01*
X107238757Y-77181192D02*
X108000662Y-77181192D01*
X107619709Y-77562145D02*
X107619709Y-76800240D01*
X108953042Y-76562145D02*
X108476852Y-76562145D01*
X108476852Y-76562145D02*
X108429233Y-77038335D01*
X108429233Y-77038335D02*
X108476852Y-76990716D01*
X108476852Y-76990716D02*
X108572090Y-76943097D01*
X108572090Y-76943097D02*
X108810185Y-76943097D01*
X108810185Y-76943097D02*
X108905423Y-76990716D01*
X108905423Y-76990716D02*
X108953042Y-77038335D01*
X108953042Y-77038335D02*
X109000661Y-77133573D01*
X109000661Y-77133573D02*
X109000661Y-77371668D01*
X109000661Y-77371668D02*
X108953042Y-77466906D01*
X108953042Y-77466906D02*
X108905423Y-77514526D01*
X108905423Y-77514526D02*
X108810185Y-77562145D01*
X108810185Y-77562145D02*
X108572090Y-77562145D01*
X108572090Y-77562145D02*
X108476852Y-77514526D01*
X108476852Y-77514526D02*
X108429233Y-77466906D01*
X109286376Y-76562145D02*
X109619709Y-77562145D01*
X109619709Y-77562145D02*
X109953042Y-76562145D01*
X88387826Y-46681830D02*
X88435445Y-46634211D01*
X88435445Y-46634211D02*
X88530683Y-46586592D01*
X88530683Y-46586592D02*
X88768778Y-46586592D01*
X88768778Y-46586592D02*
X88864016Y-46634211D01*
X88864016Y-46634211D02*
X88911635Y-46681830D01*
X88911635Y-46681830D02*
X88959254Y-46777068D01*
X88959254Y-46777068D02*
X88959254Y-46872306D01*
X88959254Y-46872306D02*
X88911635Y-47015163D01*
X88911635Y-47015163D02*
X88340207Y-47586592D01*
X88340207Y-47586592D02*
X88959254Y-47586592D01*
X89292588Y-46586592D02*
X89959254Y-46586592D01*
X89959254Y-46586592D02*
X89530683Y-47586592D01*
X90911635Y-47491353D02*
X90864016Y-47538973D01*
X90864016Y-47538973D02*
X90721159Y-47586592D01*
X90721159Y-47586592D02*
X90625921Y-47586592D01*
X90625921Y-47586592D02*
X90483064Y-47538973D01*
X90483064Y-47538973D02*
X90387826Y-47443734D01*
X90387826Y-47443734D02*
X90340207Y-47348496D01*
X90340207Y-47348496D02*
X90292588Y-47158020D01*
X90292588Y-47158020D02*
X90292588Y-47015163D01*
X90292588Y-47015163D02*
X90340207Y-46824687D01*
X90340207Y-46824687D02*
X90387826Y-46729449D01*
X90387826Y-46729449D02*
X90483064Y-46634211D01*
X90483064Y-46634211D02*
X90625921Y-46586592D01*
X90625921Y-46586592D02*
X90721159Y-46586592D01*
X90721159Y-46586592D02*
X90864016Y-46634211D01*
X90864016Y-46634211D02*
X90911635Y-46681830D01*
X91292588Y-46681830D02*
X91340207Y-46634211D01*
X91340207Y-46634211D02*
X91435445Y-46586592D01*
X91435445Y-46586592D02*
X91673540Y-46586592D01*
X91673540Y-46586592D02*
X91768778Y-46634211D01*
X91768778Y-46634211D02*
X91816397Y-46681830D01*
X91816397Y-46681830D02*
X91864016Y-46777068D01*
X91864016Y-46777068D02*
X91864016Y-46872306D01*
X91864016Y-46872306D02*
X91816397Y-47015163D01*
X91816397Y-47015163D02*
X91244969Y-47586592D01*
X91244969Y-47586592D02*
X91864016Y-47586592D01*
X92768778Y-46586592D02*
X92292588Y-46586592D01*
X92292588Y-46586592D02*
X92244969Y-47062782D01*
X92244969Y-47062782D02*
X92292588Y-47015163D01*
X92292588Y-47015163D02*
X92387826Y-46967544D01*
X92387826Y-46967544D02*
X92625921Y-46967544D01*
X92625921Y-46967544D02*
X92721159Y-47015163D01*
X92721159Y-47015163D02*
X92768778Y-47062782D01*
X92768778Y-47062782D02*
X92816397Y-47158020D01*
X92816397Y-47158020D02*
X92816397Y-47396115D01*
X92816397Y-47396115D02*
X92768778Y-47491353D01*
X92768778Y-47491353D02*
X92721159Y-47538973D01*
X92721159Y-47538973D02*
X92625921Y-47586592D01*
X92625921Y-47586592D02*
X92387826Y-47586592D01*
X92387826Y-47586592D02*
X92292588Y-47538973D01*
X92292588Y-47538973D02*
X92244969Y-47491353D01*
X93673540Y-46586592D02*
X93483064Y-46586592D01*
X93483064Y-46586592D02*
X93387826Y-46634211D01*
X93387826Y-46634211D02*
X93340207Y-46681830D01*
X93340207Y-46681830D02*
X93244969Y-46824687D01*
X93244969Y-46824687D02*
X93197350Y-47015163D01*
X93197350Y-47015163D02*
X93197350Y-47396115D01*
X93197350Y-47396115D02*
X93244969Y-47491353D01*
X93244969Y-47491353D02*
X93292588Y-47538973D01*
X93292588Y-47538973D02*
X93387826Y-47586592D01*
X93387826Y-47586592D02*
X93578302Y-47586592D01*
X93578302Y-47586592D02*
X93673540Y-47538973D01*
X93673540Y-47538973D02*
X93721159Y-47491353D01*
X93721159Y-47491353D02*
X93768778Y-47396115D01*
X93768778Y-47396115D02*
X93768778Y-47158020D01*
X93768778Y-47158020D02*
X93721159Y-47062782D01*
X93721159Y-47062782D02*
X93673540Y-47015163D01*
X93673540Y-47015163D02*
X93578302Y-46967544D01*
X93578302Y-46967544D02*
X93387826Y-46967544D01*
X93387826Y-46967544D02*
X93292588Y-47015163D01*
X93292588Y-47015163D02*
X93244969Y-47062782D01*
X93244969Y-47062782D02*
X93197350Y-47158020D01*
D11*
%TO.C,J1*%
X110624300Y-52217200D02*
X110624300Y-54117200D01*
X110624300Y-54117200D02*
X112474300Y-54117200D01*
X112474300Y-52217200D02*
X110624300Y-52217200D01*
X112474300Y-52267200D02*
X112474300Y-52217200D01*
X112474300Y-54117200D02*
X112474300Y-52267200D01*
%TO.C,U2*%
X104182600Y-56486600D02*
X104182600Y-74386600D01*
X104182600Y-74386600D02*
X109482600Y-74386600D01*
X105832600Y-56486600D02*
X104182600Y-56486600D01*
X109482600Y-56486600D02*
X107832600Y-56486600D01*
X109482600Y-74386600D02*
X109482600Y-56486600D01*
X105832600Y-56486600D02*
G75*
G03*
X107832600Y-56486600I1000000J0D01*
G01*
%TO.C,GND1*%
X110624300Y-78058000D02*
X110624300Y-79958000D01*
X110624300Y-79958000D02*
X112474300Y-79958000D01*
X112474300Y-78058000D02*
X110624300Y-78058000D01*
X112474300Y-78108000D02*
X112474300Y-78058000D01*
X112474300Y-79958000D02*
X112474300Y-78108000D01*
%TO.C,K2*%
X104084600Y-78058000D02*
X104084600Y-79958000D01*
X104084600Y-79958000D02*
X105934600Y-79958000D01*
X105934600Y-78058000D02*
X104084600Y-78058000D01*
X105934600Y-78108000D02*
X105934600Y-78058000D01*
X105934600Y-79958000D02*
X105934600Y-78108000D01*
%TO.C,B2*%
X101077500Y-78058000D02*
X101077500Y-79958000D01*
X101077500Y-79958000D02*
X102927500Y-79958000D01*
X102927500Y-78058000D02*
X101077500Y-78058000D01*
X102927500Y-78108000D02*
X102927500Y-78058000D01*
X102927500Y-79958000D02*
X102927500Y-78108000D01*
%TO.C,VCC1*%
X107592900Y-78058000D02*
X107592900Y-79958000D01*
X107592900Y-79958000D02*
X109442900Y-79958000D01*
X109442900Y-78058000D02*
X107592900Y-78058000D01*
X109442900Y-78108000D02*
X109442900Y-78058000D01*
X109442900Y-79958000D02*
X109442900Y-78108000D01*
%TO.C,U1*%
X84782400Y-44557500D02*
X84782400Y-80237500D01*
X84782400Y-80237500D02*
X97702400Y-80237500D01*
X90242400Y-44557500D02*
X84782400Y-44557500D01*
X97702400Y-44557500D02*
X92242400Y-44557500D01*
X97702400Y-80237500D02*
X97702400Y-44557500D01*
X90242400Y-44557500D02*
G75*
G03*
X92242400Y-44557500I1000000J0D01*
G01*
%TD*%
M02*
