M48
; DRILL file {KiCad 7.0.6} date Wed Aug  2 13:22:55 2023
; FORMAT={-:-/ absolute / metric / decimal}
; #@! TF.CreationDate,2023-08-02T13:22:55+10:00
; #@! TF.GenerationSoftware,Kicad,Pcbnew,7.0.6
; #@! TF.FileFunction,Plated,1,2,PTH
FMAT,2
METRIC
; #@! TA.AperFunction,Plated,PTH,ComponentDrill
T1C0.700
; #@! TA.AperFunction,Plated,PTH,ComponentDrill
T2C0.800
%
G90
G05
T1
X102.027Y-79.008
X105.035Y-79.008
X108.543Y-79.008
X111.574Y-53.167
X111.574Y-79.008
T2
X79.69Y-50.97
X79.69Y-53.51
X79.69Y-56.05
X79.69Y-58.59
X79.69Y-61.13
X79.69Y-63.67
X79.69Y-66.21
X79.69Y-68.75
X79.69Y-71.29
X79.69Y-73.83
X79.69Y-76.37
X79.69Y-78.91
X83.622Y-45.887
X83.622Y-48.427
X83.622Y-50.968
X83.622Y-53.508
X83.622Y-56.047
X83.622Y-58.587
X83.622Y-61.127
X83.622Y-63.667
X83.622Y-66.207
X83.622Y-68.748
X83.622Y-71.287
X83.622Y-73.828
X83.622Y-76.367
X83.622Y-78.907
X94.93Y-50.97
X94.93Y-53.51
X94.93Y-56.05
X94.93Y-58.59
X94.93Y-61.13
X94.93Y-63.67
X94.93Y-66.21
X94.93Y-68.75
X94.93Y-71.29
X94.93Y-73.83
X94.93Y-76.37
X94.93Y-78.91
X98.862Y-45.887
X98.862Y-48.427
X98.862Y-50.968
X98.862Y-53.508
X98.862Y-56.047
X98.862Y-58.587
X98.862Y-61.127
X98.862Y-63.667
X98.862Y-66.207
X98.862Y-68.748
X98.862Y-71.287
X98.862Y-73.828
X98.862Y-76.367
X98.862Y-78.907
X103.023Y-57.817
X103.023Y-60.357
X103.023Y-62.897
X103.023Y-65.437
X103.023Y-67.977
X103.023Y-70.517
X103.023Y-73.057
X110.643Y-57.817
X110.643Y-60.357
X110.643Y-62.897
X110.643Y-65.437
X110.643Y-67.977
X110.643Y-70.517
X110.643Y-73.057
T0
M30
