%TF.GenerationSoftware,KiCad,Pcbnew,7.0.6*%
%TF.CreationDate,2023-08-01T22:32:42+10:00*%
%TF.ProjectId,vic20 rom,76696332-3020-4726-9f6d-2e6b69636164,rev?*%
%TF.SameCoordinates,Original*%
%TF.FileFunction,Copper,L2,Bot*%
%TF.FilePolarity,Positive*%
%FSLAX46Y46*%
G04 Gerber Fmt 4.6, Leading zero omitted, Abs format (unit mm)*
G04 Created by KiCad (PCBNEW 7.0.6) date 2023-08-01 22:32:42*
%MOMM*%
%LPD*%
G01*
G04 APERTURE LIST*
%TA.AperFunction,ComponentPad*%
%ADD10C,1.400000*%
%TD*%
%TA.AperFunction,ComponentPad*%
%ADD11R,1.600000X1.600000*%
%TD*%
%TA.AperFunction,ComponentPad*%
%ADD12O,1.600000X1.600000*%
%TD*%
%TA.AperFunction,Conductor*%
%ADD13C,0.350000*%
%TD*%
%TA.AperFunction,Conductor*%
%ADD14C,0.250000*%
%TD*%
%TA.AperFunction,Conductor*%
%ADD15C,0.400000*%
%TD*%
G04 APERTURE END LIST*
D10*
%TO.P,Kernal C/E,1,Pin_1*%
%TO.N,Net-(J1-Pin_1)*%
X111243192Y-54860817D03*
%TD*%
D11*
%TO.P,Basic ROM,1,A7*%
%TO.N,Net-(U1-A7)*%
X79690000Y-50970000D03*
D12*
%TO.P,Basic ROM,2,A6*%
%TO.N,Net-(U1-A6)*%
X79690000Y-53510000D03*
%TO.P,Basic ROM,3,A5*%
%TO.N,Net-(U1-A5)*%
X79690000Y-56050000D03*
%TO.P,Basic ROM,4,A4*%
%TO.N,Net-(U1-A4)*%
X79690000Y-58590000D03*
%TO.P,Basic ROM,5,A3*%
%TO.N,Net-(U1-A3)*%
X79690000Y-61130000D03*
%TO.P,Basic ROM,6,A2*%
%TO.N,Net-(U1-A2)*%
X79690000Y-63670000D03*
%TO.P,Basic ROM,7,A1*%
%TO.N,Net-(U1-A1)*%
X79690000Y-66210000D03*
%TO.P,Basic ROM,8,A0*%
%TO.N,Net-(U1-A0)*%
X79690000Y-68750000D03*
%TO.P,Basic ROM,9,D0*%
%TO.N,Net-(U1-D0)*%
X79690000Y-71290000D03*
%TO.P,Basic ROM,10,D1*%
%TO.N,Net-(U1-D1)*%
X79690000Y-73830000D03*
%TO.P,Basic ROM,11,D2*%
%TO.N,Net-(U1-D2)*%
X79690000Y-76370000D03*
%TO.P,Basic ROM,12,GND*%
%TO.N,Net-(U1-GND)*%
X79690000Y-78910000D03*
%TO.P,Basic ROM,13,D3*%
%TO.N,Net-(U1-D3)*%
X94930000Y-78910000D03*
%TO.P,Basic ROM,14,D4*%
%TO.N,Net-(U1-D4)*%
X94930000Y-76370000D03*
%TO.P,Basic ROM,15,D5*%
%TO.N,Net-(U1-D5)*%
X94930000Y-73830000D03*
%TO.P,Basic ROM,16,D6*%
%TO.N,Net-(U1-D6)*%
X94930000Y-71290000D03*
%TO.P,Basic ROM,17,D7*%
%TO.N,Net-(U1-D7)*%
X94930000Y-68750000D03*
%TO.P,Basic ROM,18,A11*%
%TO.N,Net-(U1-A11)*%
X94930000Y-66210000D03*
%TO.P,Basic ROM,19,A10*%
%TO.N,Net-(U1-A10)*%
X94930000Y-63670000D03*
%TO.P,Basic ROM,20,~{CE}*%
%TO.N,Net-(U1-A14)*%
X94930000Y-61130000D03*
%TO.P,Basic ROM,21,A12*%
%TO.N,Net-(U1-A12)*%
X94930000Y-58590000D03*
%TO.P,Basic ROM,22,A9*%
%TO.N,Net-(U1-A9)*%
X94930000Y-56050000D03*
%TO.P,Basic ROM,23,A8*%
%TO.N,Net-(U1-A8)*%
X94930000Y-53510000D03*
%TO.P,Basic ROM,24,VCC*%
%TO.N,Net-(J2-Pin_1)*%
X94930000Y-50970000D03*
%TD*%
D10*
%TO.P,J5,1,Pin_1*%
%TO.N,Net-(J5-Pin_1)*%
X111192600Y-78884900D03*
%TD*%
D11*
%TO.P,7408,1*%
%TO.N,Net-(U1-A14)*%
X102935400Y-58660400D03*
D12*
%TO.P,7408,2*%
%TO.N,Net-(J1-Pin_1)*%
X102935400Y-61200400D03*
%TO.P,7408,3*%
%TO.N,Net-(U1-~{OE})*%
X102935400Y-63740400D03*
%TO.P,7408,4*%
%TO.N,N/C*%
X102935400Y-66280400D03*
%TO.P,7408,5*%
X102935400Y-68820400D03*
%TO.P,7408,6*%
X102935400Y-71360400D03*
%TO.P,7408,7,GND*%
%TO.N,Net-(U1-GND)*%
X102935400Y-73900400D03*
%TO.P,7408,8*%
%TO.N,Net-(U1-A13)*%
X110555400Y-73900400D03*
%TO.P,7408,9*%
%TO.N,Net-(J3-Pin_1)*%
X110555400Y-71360400D03*
%TO.P,7408,10*%
%TO.N,Net-(J1-Pin_1)*%
X110555400Y-68820400D03*
%TO.P,7408,11*%
%TO.N,Net-(U1-A13)*%
X110555400Y-66280400D03*
%TO.P,7408,12*%
%TO.N,Net-(J5-Pin_1)*%
X110555400Y-63740400D03*
%TO.P,7408,13*%
%TO.N,Net-(U1-A14)*%
X110555400Y-61200400D03*
%TO.P,7408,14,VCC*%
%TO.N,Net-(J2-Pin_1)*%
X110555400Y-58660400D03*
%TD*%
D10*
%TO.P,J3,1,Pin_1*%
%TO.N,Net-(J3-Pin_1)*%
X104847100Y-78872000D03*
%TD*%
%TO.P,K2 En,1,Pin_1*%
%TO.N,Net-(J2-Pin_1)*%
X108344500Y-78886200D03*
%TD*%
%TO.P,B2 En,1,Pin_1*%
%TO.N,Net-(J2-Pin_1)*%
X101965800Y-78873300D03*
%TD*%
D11*
%TO.P,27C256,1,VPP*%
%TO.N,Net-(J2-Pin_1)*%
X83622400Y-45887500D03*
D12*
%TO.P,27C256,2,A12*%
%TO.N,Net-(U1-A12)*%
X83622400Y-48427500D03*
%TO.P,27C256,3,A7*%
%TO.N,Net-(U1-A7)*%
X83622400Y-50967500D03*
%TO.P,27C256,4,A6*%
%TO.N,Net-(U1-A6)*%
X83622400Y-53507500D03*
%TO.P,27C256,5,A5*%
%TO.N,Net-(U1-A5)*%
X83622400Y-56047500D03*
%TO.P,27C256,6,A4*%
%TO.N,Net-(U1-A4)*%
X83622400Y-58587500D03*
%TO.P,27C256,7,A3*%
%TO.N,Net-(U1-A3)*%
X83622400Y-61127500D03*
%TO.P,27C256,8,A2*%
%TO.N,Net-(U1-A2)*%
X83622400Y-63667500D03*
%TO.P,27C256,9,A1*%
%TO.N,Net-(U1-A1)*%
X83622400Y-66207500D03*
%TO.P,27C256,10,A0*%
%TO.N,Net-(U1-A0)*%
X83622400Y-68747500D03*
%TO.P,27C256,11,D0*%
%TO.N,Net-(U1-D0)*%
X83622400Y-71287500D03*
%TO.P,27C256,12,D1*%
%TO.N,Net-(U1-D1)*%
X83622400Y-73827500D03*
%TO.P,27C256,13,D2*%
%TO.N,Net-(U1-D2)*%
X83622400Y-76367500D03*
%TO.P,27C256,14,GND*%
%TO.N,Net-(U1-GND)*%
X83622400Y-78907500D03*
%TO.P,27C256,15,D3*%
%TO.N,Net-(U1-D3)*%
X98862400Y-78907500D03*
%TO.P,27C256,16,D4*%
%TO.N,Net-(U1-D4)*%
X98862400Y-76367500D03*
%TO.P,27C256,17,D5*%
%TO.N,Net-(U1-D5)*%
X98862400Y-73827500D03*
%TO.P,27C256,18,D6*%
%TO.N,Net-(U1-D6)*%
X98862400Y-71287500D03*
%TO.P,27C256,19,D7*%
%TO.N,Net-(U1-D7)*%
X98862400Y-68747500D03*
%TO.P,27C256,20,~{CE}*%
%TO.N,Net-(U1-GND)*%
X98862400Y-66207500D03*
%TO.P,27C256,21,A10*%
%TO.N,Net-(U1-A10)*%
X98862400Y-63667500D03*
%TO.P,27C256,22,~{OE}*%
%TO.N,Net-(U1-~{OE})*%
X98862400Y-61127500D03*
%TO.P,27C256,23,A11*%
%TO.N,Net-(U1-A11)*%
X98862400Y-58587500D03*
%TO.P,27C256,24,A9*%
%TO.N,Net-(U1-A9)*%
X98862400Y-56047500D03*
%TO.P,27C256,25,A8*%
%TO.N,Net-(U1-A8)*%
X98862400Y-53507500D03*
%TO.P,27C256,26,A13*%
%TO.N,Net-(U1-A13)*%
X98862400Y-50967500D03*
%TO.P,27C256,27,A14*%
%TO.N,Net-(U1-A14)*%
X98862400Y-48427500D03*
%TO.P,27C256,28,VCC*%
%TO.N,Net-(J2-Pin_1)*%
X98862400Y-45887500D03*
%TD*%
D13*
%TO.N,Net-(J5-Pin_1)*%
X110555400Y-63740400D02*
X112065666Y-65250666D01*
X112065666Y-65250666D02*
X112065666Y-78011834D01*
X112065666Y-78011834D02*
X111192600Y-78884900D01*
D14*
%TO.N,Net-(U1-A13)*%
X98862400Y-50967500D02*
X98862400Y-50984242D01*
X98862400Y-50984242D02*
X100364907Y-52486749D01*
X100364907Y-52486749D02*
X100364907Y-58183507D01*
X109662000Y-66280400D02*
X110555400Y-66280400D01*
X100364907Y-58183507D02*
X102111800Y-59930400D01*
X102111800Y-59930400D02*
X103312000Y-59930400D01*
X103312000Y-59930400D02*
X109662000Y-66280400D01*
%TO.N,Net-(U1-A12)*%
X83622400Y-48427500D02*
X85782997Y-48427500D01*
X85782997Y-48427500D02*
X89736703Y-52381206D01*
X89736703Y-52381206D02*
X89736703Y-57867478D01*
X89736703Y-57867478D02*
X94207478Y-57867478D01*
X94207478Y-57867478D02*
X94930000Y-58590000D01*
D15*
%TO.N,Net-(U1-GND)*%
X98862400Y-66207500D02*
X98862400Y-67429675D01*
X98862400Y-67429675D02*
X99852566Y-67429675D01*
X100975958Y-68553067D02*
X100975958Y-73276358D01*
X99852566Y-67429675D02*
X100975958Y-68553067D01*
X100975958Y-73276358D02*
X101465662Y-73766062D01*
D13*
%TO.N,Net-(J1-Pin_1)*%
X110555400Y-68820400D02*
X109147408Y-68820400D01*
X109147408Y-68820400D02*
X104866889Y-64539881D01*
X104866889Y-64539881D02*
X104866889Y-62867164D01*
X103200125Y-61200400D02*
X102935400Y-61200400D01*
X104866889Y-62867164D02*
X103200125Y-61200400D01*
%TO.N,Net-(J3-Pin_1)*%
X110555400Y-71360400D02*
X109273847Y-71360400D01*
X109273847Y-71360400D02*
X104847100Y-75787147D01*
X104847100Y-75787147D02*
X104847100Y-78872000D01*
D14*
%TO.N,Net-(U1-~{OE})*%
X98862400Y-61127500D02*
X100322500Y-61127500D01*
X100322500Y-61127500D02*
X102935400Y-63740400D01*
D15*
%TO.N,Net-(J2-Pin_1)*%
X98862400Y-45887500D02*
X97310027Y-47439873D01*
X97310027Y-47439873D02*
X97310027Y-49147863D01*
X97310027Y-49147863D02*
X97925350Y-49763186D01*
X101658186Y-49763186D02*
X110555400Y-58660400D01*
X97925350Y-49763186D02*
X101658186Y-49763186D01*
%TO.N,Net-(U1-GND)*%
X101465662Y-73766062D02*
X100100864Y-75130860D01*
X100100864Y-75130860D02*
X88556043Y-75130860D01*
X88556043Y-75130860D02*
X88535490Y-75151413D01*
X88535490Y-75151413D02*
X88505387Y-75151413D01*
X88505387Y-75151413D02*
X84749300Y-78907500D01*
X84749300Y-78907500D02*
X83622400Y-78907500D01*
%TO.N,Net-(J2-Pin_1)*%
X97458993Y-49351266D02*
X97735500Y-49627773D01*
X95840258Y-50970000D02*
X97458993Y-49351266D01*
X94930000Y-50970000D02*
X95840258Y-50970000D01*
D14*
%TO.N,Net-(U1-A7)*%
X80819400Y-50967500D02*
X80816900Y-50970000D01*
X83622400Y-50967500D02*
X80819400Y-50967500D01*
X79690000Y-50970000D02*
X80816900Y-50970000D01*
%TO.N,Net-(U1-A6)*%
X83622400Y-53507500D02*
X80819400Y-53507500D01*
X79690000Y-53510000D02*
X80816900Y-53510000D01*
X80819400Y-53507500D02*
X80816900Y-53510000D01*
%TO.N,Net-(U1-A5)*%
X83622400Y-56047500D02*
X80819400Y-56047500D01*
X79690000Y-56050000D02*
X80816900Y-56050000D01*
X80819400Y-56047500D02*
X80816900Y-56050000D01*
%TO.N,Net-(U1-A4)*%
X80819400Y-58587500D02*
X80816900Y-58590000D01*
X79690000Y-58590000D02*
X80816900Y-58590000D01*
X83622400Y-58587500D02*
X80819400Y-58587500D01*
%TO.N,Net-(U1-A3)*%
X80819400Y-61127500D02*
X80816900Y-61130000D01*
X83622400Y-61127500D02*
X80819400Y-61127500D01*
X79690000Y-61130000D02*
X80816900Y-61130000D01*
%TO.N,Net-(U1-A2)*%
X83622400Y-63667500D02*
X80819400Y-63667500D01*
X80819400Y-63667500D02*
X80816900Y-63670000D01*
X79690000Y-63670000D02*
X80816900Y-63670000D01*
%TO.N,Net-(U1-A1)*%
X80819400Y-66207500D02*
X80816900Y-66210000D01*
X83622400Y-66207500D02*
X80819400Y-66207500D01*
X79690000Y-66210000D02*
X80816900Y-66210000D01*
%TO.N,Net-(U1-A0)*%
X83622400Y-68747500D02*
X80819400Y-68747500D01*
X79690000Y-68750000D02*
X80816900Y-68750000D01*
X80819400Y-68747500D02*
X80816900Y-68750000D01*
%TO.N,Net-(U1-D0)*%
X80819400Y-71287500D02*
X80816900Y-71290000D01*
X83622400Y-71287500D02*
X80819400Y-71287500D01*
X79690000Y-71290000D02*
X80816900Y-71290000D01*
%TO.N,Net-(U1-D1)*%
X79690000Y-73830000D02*
X80816900Y-73830000D01*
X83622400Y-73827500D02*
X80819400Y-73827500D01*
X80819400Y-73827500D02*
X80816900Y-73830000D01*
%TO.N,Net-(U1-D2)*%
X80819400Y-76367500D02*
X80816900Y-76370000D01*
X83622400Y-76367500D02*
X80819400Y-76367500D01*
X79690000Y-76370000D02*
X80816900Y-76370000D01*
D15*
%TO.N,Net-(U1-GND)*%
X83622400Y-78907500D02*
X80819400Y-78907500D01*
X101465662Y-73766062D02*
X101600000Y-73900400D01*
X102935400Y-73900400D02*
X101600000Y-73900400D01*
X79690000Y-78910000D02*
X80816900Y-78910000D01*
X80819400Y-78907500D02*
X80816900Y-78910000D01*
D14*
%TO.N,Net-(U1-D3)*%
X96059400Y-78907500D02*
X96056900Y-78910000D01*
X94930000Y-78910000D02*
X96056900Y-78910000D01*
X98862400Y-78907500D02*
X96059400Y-78907500D01*
%TO.N,Net-(U1-D4)*%
X96059400Y-76367500D02*
X96056900Y-76370000D01*
X94930000Y-76370000D02*
X96056900Y-76370000D01*
X98862400Y-76367500D02*
X96059400Y-76367500D01*
%TO.N,Net-(U1-D5)*%
X94930000Y-73830000D02*
X96056900Y-73830000D01*
X98862400Y-73827500D02*
X96059400Y-73827500D01*
X96059400Y-73827500D02*
X96056900Y-73830000D01*
%TO.N,Net-(U1-D6)*%
X94930000Y-71290000D02*
X96056900Y-71290000D01*
X96059400Y-71287500D02*
X96056900Y-71290000D01*
X98862400Y-71287500D02*
X96059400Y-71287500D01*
%TO.N,Net-(U1-D7)*%
X96059400Y-68747500D02*
X96056900Y-68750000D01*
X94930000Y-68750000D02*
X96056900Y-68750000D01*
X98862400Y-68747500D02*
X96059400Y-68747500D01*
%TO.N,Net-(U1-A10)*%
X94930000Y-63670000D02*
X96056900Y-63670000D01*
X98862400Y-63667500D02*
X96059400Y-63667500D01*
X96059400Y-63667500D02*
X96056900Y-63670000D01*
%TO.N,Net-(U1-A9)*%
X98862400Y-56047500D02*
X96059400Y-56047500D01*
X96059400Y-56047500D02*
X96056900Y-56050000D01*
X94930000Y-56050000D02*
X96056900Y-56050000D01*
%TO.N,Net-(U1-A8)*%
X97735500Y-53507500D02*
X97733000Y-53510000D01*
X98862400Y-53507500D02*
X97735500Y-53507500D01*
X97733000Y-53510000D02*
X94930000Y-53510000D01*
D13*
%TO.N,Net-(U1-A14)*%
X106602300Y-61200400D02*
X110555400Y-61200400D01*
X102935400Y-58660400D02*
X104062300Y-58660400D01*
X104062300Y-58660400D02*
X106602300Y-61200400D01*
%TD*%
M02*
