M48
; DRILL file {KiCad 7.0.6} date Tue Aug  1 22:32:48 2023
; FORMAT={-:-/ absolute / metric / decimal}
; #@! TF.CreationDate,2023-08-01T22:32:48+10:00
; #@! TF.GenerationSoftware,Kicad,Pcbnew,7.0.6
; #@! TF.FileFunction,Plated,1,2,PTH
FMAT,2
METRIC
; #@! TA.AperFunction,Plated,PTH,ComponentDrill
T1C0.700
; #@! TA.AperFunction,Plated,PTH,ComponentDrill
T2C0.800
%
G90
G05
T1
X101.966Y-78.873
X104.847Y-78.872
X108.344Y-78.886
X111.193Y-78.885
X111.243Y-54.861
T2
X79.69Y-50.97
X79.69Y-53.51
X79.69Y-56.05
X79.69Y-58.59
X79.69Y-61.13
X79.69Y-63.67
X79.69Y-66.21
X79.69Y-68.75
X79.69Y-71.29
X79.69Y-73.83
X79.69Y-76.37
X79.69Y-78.91
X83.622Y-45.887
X83.622Y-48.427
X83.622Y-50.968
X83.622Y-53.508
X83.622Y-56.047
X83.622Y-58.587
X83.622Y-61.127
X83.622Y-63.667
X83.622Y-66.207
X83.622Y-68.748
X83.622Y-71.287
X83.622Y-73.828
X83.622Y-76.367
X83.622Y-78.907
X94.93Y-50.97
X94.93Y-53.51
X94.93Y-56.05
X94.93Y-58.59
X94.93Y-61.13
X94.93Y-63.67
X94.93Y-66.21
X94.93Y-68.75
X94.93Y-71.29
X94.93Y-73.83
X94.93Y-76.37
X94.93Y-78.91
X98.862Y-45.887
X98.862Y-48.427
X98.862Y-50.968
X98.862Y-53.508
X98.862Y-56.047
X98.862Y-58.587
X98.862Y-61.127
X98.862Y-63.667
X98.862Y-66.207
X98.862Y-68.748
X98.862Y-71.287
X98.862Y-73.828
X98.862Y-76.367
X98.862Y-78.907
X102.935Y-58.66
X102.935Y-61.2
X102.935Y-63.74
X102.935Y-66.28
X102.935Y-68.82
X102.935Y-71.36
X102.935Y-73.9
X110.555Y-58.66
X110.555Y-61.2
X110.555Y-63.74
X110.555Y-66.28
X110.555Y-68.82
X110.555Y-71.36
X110.555Y-73.9
T0
M30
