%TF.GenerationSoftware,KiCad,Pcbnew,7.0.6*%
%TF.CreationDate,2023-08-01T22:32:42+10:00*%
%TF.ProjectId,vic20 rom,76696332-3020-4726-9f6d-2e6b69636164,rev?*%
%TF.SameCoordinates,Original*%
%TF.FileFunction,Copper,L1,Top*%
%TF.FilePolarity,Positive*%
%FSLAX46Y46*%
G04 Gerber Fmt 4.6, Leading zero omitted, Abs format (unit mm)*
G04 Created by KiCad (PCBNEW 7.0.6) date 2023-08-01 22:32:42*
%MOMM*%
%LPD*%
G01*
G04 APERTURE LIST*
%TA.AperFunction,ComponentPad*%
%ADD10C,1.400000*%
%TD*%
%TA.AperFunction,ComponentPad*%
%ADD11R,1.600000X1.600000*%
%TD*%
%TA.AperFunction,ComponentPad*%
%ADD12O,1.600000X1.600000*%
%TD*%
%TA.AperFunction,Conductor*%
%ADD13C,0.400000*%
%TD*%
%TA.AperFunction,Conductor*%
%ADD14C,0.250000*%
%TD*%
%TA.AperFunction,Conductor*%
%ADD15C,0.350000*%
%TD*%
G04 APERTURE END LIST*
D10*
%TO.P,Kernal C/E,1,Pin_1*%
%TO.N,Net-(J1-Pin_1)*%
X111243192Y-54860817D03*
%TD*%
D11*
%TO.P,Basic ROM,1,A7*%
%TO.N,Net-(U1-A7)*%
X79690000Y-50970000D03*
D12*
%TO.P,Basic ROM,2,A6*%
%TO.N,Net-(U1-A6)*%
X79690000Y-53510000D03*
%TO.P,Basic ROM,3,A5*%
%TO.N,Net-(U1-A5)*%
X79690000Y-56050000D03*
%TO.P,Basic ROM,4,A4*%
%TO.N,Net-(U1-A4)*%
X79690000Y-58590000D03*
%TO.P,Basic ROM,5,A3*%
%TO.N,Net-(U1-A3)*%
X79690000Y-61130000D03*
%TO.P,Basic ROM,6,A2*%
%TO.N,Net-(U1-A2)*%
X79690000Y-63670000D03*
%TO.P,Basic ROM,7,A1*%
%TO.N,Net-(U1-A1)*%
X79690000Y-66210000D03*
%TO.P,Basic ROM,8,A0*%
%TO.N,Net-(U1-A0)*%
X79690000Y-68750000D03*
%TO.P,Basic ROM,9,D0*%
%TO.N,Net-(U1-D0)*%
X79690000Y-71290000D03*
%TO.P,Basic ROM,10,D1*%
%TO.N,Net-(U1-D1)*%
X79690000Y-73830000D03*
%TO.P,Basic ROM,11,D2*%
%TO.N,Net-(U1-D2)*%
X79690000Y-76370000D03*
%TO.P,Basic ROM,12,GND*%
%TO.N,Net-(U1-GND)*%
X79690000Y-78910000D03*
%TO.P,Basic ROM,13,D3*%
%TO.N,Net-(U1-D3)*%
X94930000Y-78910000D03*
%TO.P,Basic ROM,14,D4*%
%TO.N,Net-(U1-D4)*%
X94930000Y-76370000D03*
%TO.P,Basic ROM,15,D5*%
%TO.N,Net-(U1-D5)*%
X94930000Y-73830000D03*
%TO.P,Basic ROM,16,D6*%
%TO.N,Net-(U1-D6)*%
X94930000Y-71290000D03*
%TO.P,Basic ROM,17,D7*%
%TO.N,Net-(U1-D7)*%
X94930000Y-68750000D03*
%TO.P,Basic ROM,18,A11*%
%TO.N,Net-(U1-A11)*%
X94930000Y-66210000D03*
%TO.P,Basic ROM,19,A10*%
%TO.N,Net-(U1-A10)*%
X94930000Y-63670000D03*
%TO.P,Basic ROM,20,~{CE}*%
%TO.N,Net-(U1-A14)*%
X94930000Y-61130000D03*
%TO.P,Basic ROM,21,A12*%
%TO.N,Net-(U1-A12)*%
X94930000Y-58590000D03*
%TO.P,Basic ROM,22,A9*%
%TO.N,Net-(U1-A9)*%
X94930000Y-56050000D03*
%TO.P,Basic ROM,23,A8*%
%TO.N,Net-(U1-A8)*%
X94930000Y-53510000D03*
%TO.P,Basic ROM,24,VCC*%
%TO.N,Net-(J2-Pin_1)*%
X94930000Y-50970000D03*
%TD*%
D10*
%TO.P,J5,1,Pin_1*%
%TO.N,Net-(J5-Pin_1)*%
X111192600Y-78884900D03*
%TD*%
D11*
%TO.P,7408,1*%
%TO.N,Net-(U1-A14)*%
X102935400Y-58660400D03*
D12*
%TO.P,7408,2*%
%TO.N,Net-(J1-Pin_1)*%
X102935400Y-61200400D03*
%TO.P,7408,3*%
%TO.N,Net-(U1-~{OE})*%
X102935400Y-63740400D03*
%TO.P,7408,4*%
%TO.N,N/C*%
X102935400Y-66280400D03*
%TO.P,7408,5*%
X102935400Y-68820400D03*
%TO.P,7408,6*%
X102935400Y-71360400D03*
%TO.P,7408,7,GND*%
%TO.N,Net-(U1-GND)*%
X102935400Y-73900400D03*
%TO.P,7408,8*%
%TO.N,Net-(U1-A13)*%
X110555400Y-73900400D03*
%TO.P,7408,9*%
%TO.N,Net-(J3-Pin_1)*%
X110555400Y-71360400D03*
%TO.P,7408,10*%
%TO.N,Net-(J1-Pin_1)*%
X110555400Y-68820400D03*
%TO.P,7408,11*%
%TO.N,Net-(U1-A13)*%
X110555400Y-66280400D03*
%TO.P,7408,12*%
%TO.N,Net-(J5-Pin_1)*%
X110555400Y-63740400D03*
%TO.P,7408,13*%
%TO.N,Net-(U1-A14)*%
X110555400Y-61200400D03*
%TO.P,7408,14,VCC*%
%TO.N,Net-(J2-Pin_1)*%
X110555400Y-58660400D03*
%TD*%
D10*
%TO.P,J3,1,Pin_1*%
%TO.N,Net-(J3-Pin_1)*%
X104847100Y-78872000D03*
%TD*%
%TO.P,K2 En,1,Pin_1*%
%TO.N,Net-(J2-Pin_1)*%
X108344500Y-78886200D03*
%TD*%
%TO.P,B2 En,1,Pin_1*%
%TO.N,Net-(J2-Pin_1)*%
X101965800Y-78873300D03*
%TD*%
D11*
%TO.P,27C256,1,VPP*%
%TO.N,Net-(J2-Pin_1)*%
X83622400Y-45887500D03*
D12*
%TO.P,27C256,2,A12*%
%TO.N,Net-(U1-A12)*%
X83622400Y-48427500D03*
%TO.P,27C256,3,A7*%
%TO.N,Net-(U1-A7)*%
X83622400Y-50967500D03*
%TO.P,27C256,4,A6*%
%TO.N,Net-(U1-A6)*%
X83622400Y-53507500D03*
%TO.P,27C256,5,A5*%
%TO.N,Net-(U1-A5)*%
X83622400Y-56047500D03*
%TO.P,27C256,6,A4*%
%TO.N,Net-(U1-A4)*%
X83622400Y-58587500D03*
%TO.P,27C256,7,A3*%
%TO.N,Net-(U1-A3)*%
X83622400Y-61127500D03*
%TO.P,27C256,8,A2*%
%TO.N,Net-(U1-A2)*%
X83622400Y-63667500D03*
%TO.P,27C256,9,A1*%
%TO.N,Net-(U1-A1)*%
X83622400Y-66207500D03*
%TO.P,27C256,10,A0*%
%TO.N,Net-(U1-A0)*%
X83622400Y-68747500D03*
%TO.P,27C256,11,D0*%
%TO.N,Net-(U1-D0)*%
X83622400Y-71287500D03*
%TO.P,27C256,12,D1*%
%TO.N,Net-(U1-D1)*%
X83622400Y-73827500D03*
%TO.P,27C256,13,D2*%
%TO.N,Net-(U1-D2)*%
X83622400Y-76367500D03*
%TO.P,27C256,14,GND*%
%TO.N,Net-(U1-GND)*%
X83622400Y-78907500D03*
%TO.P,27C256,15,D3*%
%TO.N,Net-(U1-D3)*%
X98862400Y-78907500D03*
%TO.P,27C256,16,D4*%
%TO.N,Net-(U1-D4)*%
X98862400Y-76367500D03*
%TO.P,27C256,17,D5*%
%TO.N,Net-(U1-D5)*%
X98862400Y-73827500D03*
%TO.P,27C256,18,D6*%
%TO.N,Net-(U1-D6)*%
X98862400Y-71287500D03*
%TO.P,27C256,19,D7*%
%TO.N,Net-(U1-D7)*%
X98862400Y-68747500D03*
%TO.P,27C256,20,~{CE}*%
%TO.N,Net-(U1-GND)*%
X98862400Y-66207500D03*
%TO.P,27C256,21,A10*%
%TO.N,Net-(U1-A10)*%
X98862400Y-63667500D03*
%TO.P,27C256,22,~{OE}*%
%TO.N,Net-(U1-~{OE})*%
X98862400Y-61127500D03*
%TO.P,27C256,23,A11*%
%TO.N,Net-(U1-A11)*%
X98862400Y-58587500D03*
%TO.P,27C256,24,A9*%
%TO.N,Net-(U1-A9)*%
X98862400Y-56047500D03*
%TO.P,27C256,25,A8*%
%TO.N,Net-(U1-A8)*%
X98862400Y-53507500D03*
%TO.P,27C256,26,A13*%
%TO.N,Net-(U1-A13)*%
X98862400Y-50967500D03*
%TO.P,27C256,27,A14*%
%TO.N,Net-(U1-A14)*%
X98862400Y-48427500D03*
%TO.P,27C256,28,VCC*%
%TO.N,Net-(J2-Pin_1)*%
X98862400Y-45887500D03*
%TD*%
D13*
%TO.N,Net-(J2-Pin_1)*%
X110555400Y-58660400D02*
X110555400Y-59106380D01*
X110555400Y-59106380D02*
X107022048Y-62639732D01*
X107022048Y-62639732D02*
X107022048Y-77093330D01*
X107022048Y-77093330D02*
X106506882Y-77608496D01*
X106506882Y-77608496D02*
X108163796Y-77608496D01*
D14*
%TO.N,Net-(U1-A13)*%
X110555400Y-66280400D02*
X111880126Y-67605126D01*
X111880126Y-67605126D02*
X111880126Y-72575674D01*
X111880126Y-72575674D02*
X110555400Y-73900400D01*
%TO.N,Net-(U1-A11)*%
X98862400Y-58587500D02*
X98620977Y-58587500D01*
X97000276Y-66017742D02*
X96808018Y-66210000D01*
X98620977Y-58587500D02*
X97000276Y-60208201D01*
X97000276Y-60208201D02*
X97000276Y-66017742D01*
X96808018Y-66210000D02*
X94930000Y-66210000D01*
D15*
%TO.N,Net-(U1-A14)*%
X98862400Y-48427500D02*
X98862400Y-49101287D01*
X98862400Y-49101287D02*
X100366978Y-50605865D01*
X100366978Y-50605865D02*
X100366978Y-56983222D01*
X100366978Y-56983222D02*
X100032700Y-57317500D01*
%TO.N,Net-(J1-Pin_1)*%
X102935400Y-61200400D02*
X104758047Y-61200400D01*
X104758047Y-61200400D02*
X110981180Y-54977267D01*
D13*
%TO.N,Net-(J2-Pin_1)*%
X108344500Y-77789200D02*
X108344500Y-78886200D01*
X108344500Y-77789200D02*
X108163796Y-77608496D01*
X103230604Y-77608496D02*
X101965800Y-78873300D01*
X84579723Y-45887500D02*
X83622400Y-45887500D01*
X108163796Y-77608496D02*
X103230604Y-77608496D01*
X94930000Y-50970000D02*
X89662223Y-50970000D01*
X89662223Y-50970000D02*
X84579723Y-45887500D01*
D15*
%TO.N,Net-(U1-A14)*%
X100032700Y-57317500D02*
X98197463Y-57317500D01*
X96056900Y-61130000D02*
X94930000Y-61130000D01*
X96056900Y-59458063D02*
X96056900Y-61130000D01*
X98197463Y-57317500D02*
X96056900Y-59458063D01*
X101808500Y-58660400D02*
X100465600Y-57317500D01*
X102935400Y-58660400D02*
X101808500Y-58660400D01*
X100465600Y-57317500D02*
X100032700Y-57317500D01*
%TD*%
M02*
